<?xml version="1.0" encoding="utf-8"?>
<!-- Generator: Adobe Illustrator 21.0.0, SVG Export Plug-In . SVG Version: 6.00 Build 0)  -->
<svg version="1.1" id="Layer_1" xmlns="http://www.w3.org/2000/svg" xmlns:xlink="http://www.w3.org/1999/xlink" x="0px" y="0px"
	 viewBox="0 0 512 512" style="enable-background:new 0 0 512 512;" xml:space="preserve">
<g>
	<path d="M256,0c-12.3,0-24.5,4.2-35.1,11.7l-32.6,22.8l-37.5,4.9h-0.6l-0.6,0.6c-25.1,5.6-44.8,25.4-50.5,50.5l-0.6,0.6v0.6
		l-4.9,38.2l-22.8,29.5l-0.6,0.6v0.6c-13.8,22-14.4,50.4,0.6,71.4l23.4,32.6l6.2,33.8l-63.4,96.6l-20.3,30.2h94.2l22.8,52.9
		l14.2,33.8l20.3-30.8l62.2-93.5c16.7,6.8,35.5,7.5,51.7,0l62.2,93.5l20.3,30.8l14.2-33.8l22.8-52.9h94.2l-20.3-30.2l-61.5-93.5
		l4.9-36.9l22.8-32.6l0.6-0.6v-0.6c13.8-22,14.4-49.8-0.6-70.8l-22.8-32.6l-7.4-36.9h0.6l-0.6-1.2c-3.5-25.8-23.9-46.7-49.8-49.8
		h-0.6l-36.9-4.9l-32.6-22.8C280.5,4.2,268.3,0,256,0z M256,40c4.5,0,9,1.4,12.3,3.7l35.1,25.2l4.3,3.1l4.9,0.6l43.1,6.2h0.6
		c8.8,1,15,7.2,16,16V96l8,43.7l0.6,4.3l3.1,3.7l25.2,35.1c4.7,6.5,5.3,17.6-0.6,27.1l-27.7,38.8l-0.6,4.9l-6.2,43.1v0.6
		c-0.4,3.2-1.5,6.2-3.1,8.6l-1.2,0.6v0.6c-2.8,3.4-6.8,5.6-11.7,6.2h-1.2l-44.9,8l-4.9,0.6l-3.7,3.1l-35.1,25.2
		c-6.5,4.7-18.2,5.3-27.7-0.6l-32-24.6l-3.7-3.1l-5.5-0.6l-43.1-6.2h-0.6c-6.1-0.7-10.8-3.8-13.5-8.6c-1.2-2.2-2.2-4.7-2.5-7.4v-1.2
		l-8-44.9l-0.6-4.9l-3.1-3.7l-25.2-35.1c-4.7-6.5-5.3-18.2,0.6-27.7l24.6-32l3.1-3.7l0.6-5.5l5.5-41.2l0.6-0.6
		c2.5-9.6,10.1-17.2,19.7-19.7l0.6-0.6l41.2-5.5l4.9-0.6l4.3-3.1l35.1-25.2C247,41.4,251.5,40,256,40z M392,339.7l30.2,46.2h-47.4
		l-4.9,12.3l-13.5,31.4l-41.8-64l9.2-6.8l38.8-6.8v0.6l1.2-0.6C374.3,350.5,383.9,346.1,392,339.7z M120,340.3
		c8.4,7.5,19.1,12.8,30.8,14.2h0.6l37.5,4.9l8.6,6.8l-41.8,63.4l-13.5-31.4l-4.9-12.3H89.8L120,340.3z"/>
</g>
</svg>
